<svg width="20" height="20" viewBox="0 0 20 20" fill="none" xmlns="http://www.w3.org/2000/svg">
<mask id="mask0_1_1133" style="mask-type:alpha" maskUnits="userSpaceOnUse" x="0" y="0" width="20" height="20">
<rect width="20" height="20" fill="#D9D9D9"/>
</mask>
<g mask="url(#mask0_1_1133)">
<path d="M9.4177 11.9173L7.25104 9.75065C6.98715 9.48676 6.92812 9.18468 7.07395 8.8444C7.21979 8.50412 7.4802 8.33398 7.8552 8.33398H12.1469C12.5219 8.33398 12.7823 8.50412 12.9281 8.8444C13.074 9.18468 13.0149 9.48676 12.751 9.75065L10.5844 11.9173C10.501 12.0007 10.4108 12.0632 10.3135 12.1048C10.2163 12.1465 10.1121 12.1673 10.001 12.1673C9.88993 12.1673 9.78576 12.1465 9.68854 12.1048C9.59132 12.0632 9.50104 12.0007 9.4177 11.9173Z" fill="white"/>
</g>
</svg>
