<svg width="1276" height="58" viewBox="0 0 1276 58" fill="none" xmlns="http://www.w3.org/2000/svg">
<rect width="1276" height="58" rx="8" fill="#F3F3F3"/>
<path d="M1039.78 24.6C1042.54 24.6 1043.92 26.52 1043.92 28.68C1043.92 30.84 1042.53 33 1039.71 33H1037.14V24.6H1039.78ZM1039.7 32.076C1041.8 32.076 1042.84 30.432 1042.84 28.74C1042.84 27.048 1041.81 25.524 1039.72 25.524H1038.17V32.076H1039.7ZM1048.15 26.82C1049.87 26.82 1051.08 28.032 1051.08 29.976C1051.08 31.932 1049.87 33.132 1048.15 33.132C1046.45 33.132 1045.24 31.932 1045.24 29.976C1045.24 28.032 1046.45 26.82 1048.15 26.82ZM1050.06 29.976C1050.06 28.512 1049.23 27.732 1048.14 27.732C1047 27.732 1046.26 28.596 1046.26 29.976C1046.26 31.44 1047.08 32.22 1048.18 32.22C1049.32 32.22 1050.06 31.356 1050.06 29.976ZM1060.99 26.928L1058.94 33H1058.02L1056.42 28.392L1054.85 33H1053.94L1051.86 26.928H1052.91L1054.41 31.644L1055.93 26.928H1056.93L1058.5 31.68L1059.99 26.928H1060.99ZM1065.27 26.82C1066.52 26.82 1067.41 27.564 1067.41 28.884V33H1066.41V28.98C1066.41 28.32 1066.02 27.72 1065.09 27.72C1064.01 27.72 1063.31 28.548 1063.31 29.892V33H1062.31V26.928H1063.29V27.984C1063.64 27.324 1064.25 26.82 1065.27 26.82ZM1070.38 24.468V33H1069.39V24.468H1070.38ZM1074.92 26.82C1076.63 26.82 1077.85 28.032 1077.85 29.976C1077.85 31.932 1076.63 33.132 1074.92 33.132C1073.21 33.132 1072 31.932 1072 29.976C1072 28.032 1073.21 26.82 1074.92 26.82ZM1076.83 29.976C1076.83 28.512 1076 27.732 1074.91 27.732C1073.77 27.732 1073.02 28.596 1073.02 29.976C1073.02 31.44 1073.85 32.22 1074.94 32.22C1076.08 32.22 1076.83 31.356 1076.83 29.976ZM1081.85 26.82C1083.26 26.82 1084.1 27.504 1084.1 28.848V33H1083.13V31.968C1082.66 32.868 1081.65 33.132 1080.98 33.132C1079.92 33.132 1079.05 32.496 1079.05 31.332C1079.05 29.868 1080.39 29.652 1080.92 29.568L1082.35 29.328C1082.66 29.28 1083.13 29.196 1083.13 28.608C1083.13 27.948 1082.55 27.648 1081.79 27.648C1080.95 27.648 1080.4 28.08 1080.26 28.74H1079.27C1079.44 27.48 1080.5 26.82 1081.85 26.82ZM1083.11 29.856C1082.84 29.952 1082.72 29.988 1082.24 30.072L1081.33 30.228C1080.85 30.312 1080.05 30.492 1080.05 31.32C1080.05 31.968 1080.55 32.244 1081.18 32.244C1082.14 32.244 1083.11 31.632 1083.11 30.396V29.856ZM1091.38 24.468V33H1090.42V31.812C1090.13 32.544 1089.48 33.132 1088.34 33.132C1086.47 33.132 1085.6 31.56 1085.6 29.976C1085.6 28.404 1086.48 26.82 1088.36 26.82C1089.39 26.82 1090.06 27.3 1090.38 27.924V24.468H1091.38ZM1088.46 32.208C1089.77 32.208 1090.36 31.104 1090.36 29.928C1090.36 28.764 1089.77 27.708 1088.48 27.708C1087.17 27.708 1086.62 28.8 1086.62 29.964C1086.62 31.14 1087.17 32.208 1088.46 32.208ZM1099.49 32.112V33H1098.62C1097.74 33 1096.92 32.736 1096.92 31.32V27.816H1095.76V26.928H1096.92V25.308L1097.92 25.032V26.928H1099.35V27.816H1097.92V31.26C1097.92 31.764 1098.03 32.112 1098.72 32.112H1099.49ZM1103.96 26.82C1105.2 26.82 1106.09 27.564 1106.09 28.884V33H1105.1V28.98C1105.1 28.32 1104.7 27.72 1103.78 27.72C1102.7 27.72 1101.99 28.548 1101.99 29.892V33H1100.99V24.468H1101.99V28.008C1102.34 27.336 1102.94 26.82 1103.96 26.82ZM1113.13 30.216H1108.62C1108.66 31.584 1109.47 32.244 1110.52 32.244C1111.27 32.244 1111.9 31.884 1112.1 31.236H1113.09C1112.77 32.532 1111.62 33.132 1110.47 33.132C1109.02 33.132 1107.65 32.136 1107.65 29.964C1107.65 27.78 1109.03 26.82 1110.48 26.82C1111.93 26.82 1113.13 27.756 1113.13 29.748V30.216ZM1110.46 27.684C1109.58 27.684 1108.78 28.212 1108.65 29.412H1112.14C1112.14 28.356 1111.44 27.684 1110.46 27.684ZM1123.02 32.1V33H1117.35V32.1L1119.36 30.276C1120.71 29.064 1121.7 28.2 1121.7 27.036C1121.7 26.052 1121.01 25.536 1120.08 25.536C1119.07 25.536 1118.28 26.16 1118.22 27.384H1117.21C1117.21 25.512 1118.63 24.6 1120.19 24.6C1121.69 24.6 1122.76 25.452 1122.76 26.94C1122.76 28.332 1121.89 29.232 1120.31 30.612L1118.59 32.1H1123.02ZM1126.99 33.132C1125.1 33.132 1124.22 31.452 1124.22 28.896C1124.22 26.304 1125.11 24.6 1127.02 24.6C1128.91 24.6 1129.81 26.304 1129.81 28.872C1129.81 31.452 1128.89 33.132 1126.99 33.132ZM1127.03 32.208C1128.28 32.208 1128.78 30.84 1128.78 28.92C1128.78 27.048 1128.29 25.548 1126.97 25.548C1125.77 25.548 1125.24 26.784 1125.24 28.812C1125.24 30.888 1125.79 32.208 1127.03 32.208ZM1136.83 32.1V33H1131.15V32.1L1133.17 30.276C1134.51 29.064 1135.51 28.2 1135.51 27.036C1135.51 26.052 1134.81 25.536 1133.89 25.536C1132.88 25.536 1132.09 26.16 1132.03 27.384H1131.02C1131.02 25.512 1132.43 24.6 1133.99 24.6C1135.49 24.6 1136.56 25.452 1136.56 26.94C1136.56 28.332 1135.7 29.232 1134.11 30.612L1132.4 32.1H1136.83ZM1142.27 28.692C1143.29 28.98 1143.87 29.748 1143.87 30.72C1143.87 32.244 1142.44 33.132 1140.98 33.132C1139.51 33.132 1138.03 32.244 1138.03 30.384H1139.07V30.492C1139.07 31.716 1140.03 32.268 1141.03 32.268C1142.19 32.268 1142.81 31.524 1142.81 30.768C1142.81 30 1142.15 29.244 1140.82 29.244H1140.33V28.344H1140.57C1142 28.344 1142.66 27.552 1142.66 26.784C1142.66 26.112 1142.13 25.464 1141.01 25.464C1139.85 25.464 1139.18 26.172 1139.18 27.384H1138.17C1138.17 25.596 1139.38 24.588 1141.05 24.588C1142.49 24.588 1143.7 25.344 1143.7 26.7C1143.7 27.564 1143.2 28.32 1142.27 28.692ZM1155.3 33H1154.09L1151.86 29.424H1149.85V33H1148.84V24.6H1152.08C1153.82 24.6 1154.72 25.704 1154.72 26.904C1154.72 27.888 1154.14 28.884 1152.95 29.244L1155.3 33ZM1152 28.524C1153.13 28.524 1153.73 27.732 1153.73 26.94C1153.73 26.208 1153.21 25.524 1152.14 25.524H1149.85V28.524H1152ZM1161.63 30.216H1157.11C1157.15 31.584 1157.97 32.244 1159.01 32.244C1159.77 32.244 1160.39 31.884 1160.59 31.236H1161.58C1161.27 32.532 1160.11 33.132 1158.96 33.132C1157.51 33.132 1156.14 32.136 1156.14 29.964C1156.14 27.78 1157.52 26.82 1158.97 26.82C1160.43 26.82 1161.63 27.756 1161.63 29.748V30.216ZM1158.95 27.684C1158.07 27.684 1157.27 28.212 1157.14 29.412H1160.63C1160.63 28.356 1159.93 27.684 1158.95 27.684ZM1166.25 26.82C1167.6 26.82 1169 27.72 1169 29.904C1169 32.136 1167.56 33.048 1166.21 33.048C1165.26 33.048 1164.57 32.604 1164.24 31.98V35.304H1163.24V26.928H1164.2V28.14C1164.47 27.456 1165.11 26.82 1166.25 26.82ZM1166.12 32.16C1167.08 32.16 1167.99 31.536 1167.99 29.94C1167.99 28.392 1167.12 27.744 1166.16 27.744C1165.19 27.744 1164.27 28.38 1164.27 29.964C1164.27 31.536 1165.16 32.16 1166.12 32.16ZM1173.12 26.82C1174.84 26.82 1176.05 28.032 1176.05 29.976C1176.05 31.932 1174.84 33.132 1173.12 33.132C1171.42 33.132 1170.21 31.932 1170.21 29.976C1170.21 28.032 1171.42 26.82 1173.12 26.82ZM1175.03 29.976C1175.03 28.512 1174.2 27.732 1173.11 27.732C1171.97 27.732 1171.23 28.596 1171.23 29.976C1171.23 31.44 1172.05 32.22 1173.15 32.22C1174.29 32.22 1175.03 31.356 1175.03 29.976ZM1180.8 26.868V27.816H1180.52C1179.34 27.816 1178.66 28.488 1178.66 29.844V33H1177.67V26.928H1178.65V27.984C1178.96 27.24 1179.61 26.868 1180.51 26.868H1180.8ZM1185.19 32.112V33H1184.31C1183.44 33 1182.62 32.736 1182.62 31.32V27.816H1181.46V26.928H1182.62V25.308L1183.62 25.032V26.928H1185.05V27.816H1183.62V31.26C1183.62 31.764 1183.73 32.112 1184.42 32.112H1185.19Z" fill="#191618"/>
<mask id="mask0_1_1144" style="mask-type:alpha" maskUnits="userSpaceOnUse" x="980" y="22" width="14" height="14">
<rect x="980" y="22" width="14" height="14" fill="#D9D9D9"/>
</mask>
<g mask="url(#mask0_1_1144)">
<path d="M990.5 34.8334C990.014 34.8334 989.601 34.6633 989.26 34.323C988.92 33.9827 988.75 33.5695 988.75 33.0834C988.75 33.0154 988.755 32.9449 988.765 32.872C988.774 32.799 988.789 32.7334 988.808 32.6751L984.696 30.2834C984.531 30.4292 984.346 30.5435 984.142 30.6261C983.937 30.7088 983.724 30.7501 983.5 30.7501C983.014 30.7501 982.601 30.5799 982.26 30.2397C981.92 29.8994 981.75 29.4862 981.75 29.0001C981.75 28.514 981.92 28.1008 982.26 27.7605C982.601 27.4202 983.014 27.2501 983.5 27.2501C983.724 27.2501 983.937 27.2914 984.142 27.374C984.346 27.4567 984.531 27.5709 984.696 27.7167L988.808 25.3251C988.789 25.2667 988.774 25.2011 988.765 25.1282C988.755 25.0553 988.75 24.9848 988.75 24.9167C988.75 24.4306 988.92 24.0174 989.26 23.6772C989.601 23.3369 990.014 23.1667 990.5 23.1667C990.986 23.1667 991.399 23.3369 991.74 23.6772C992.08 24.0174 992.25 24.4306 992.25 24.9167C992.25 25.4029 992.08 25.8161 991.74 26.1563C991.399 26.4966 990.986 26.6667 990.5 26.6667C990.276 26.6667 990.062 26.6254 989.858 26.5428C989.654 26.4602 989.469 26.3459 989.304 26.2001L985.192 28.5917C985.211 28.6501 985.226 28.7157 985.235 28.7886C985.245 28.8615 985.25 28.932 985.25 29.0001C985.25 29.0681 985.245 29.1386 985.235 29.2115C985.226 29.2845 985.211 29.3501 985.192 29.4084L989.304 31.8001C989.469 31.6542 989.654 31.54 989.858 31.4574C990.062 31.3747 990.276 31.3334 990.5 31.3334C990.986 31.3334 991.399 31.5036 991.74 31.8438C992.08 32.1841 992.25 32.5973 992.25 33.0834C992.25 33.5695 992.08 33.9827 991.74 34.323C991.399 34.6633 990.986 34.8334 990.5 34.8334Z" fill="#191618"/>
</g>
<rect x="1226.5" y="21.5" width="19" height="1" fill="#191618" stroke="#191618"/>
<rect x="1226.5" y="28.5" width="19" height="1" fill="#191618" stroke="#191618"/>
<rect x="1226.5" y="35.5" width="19" height="1" fill="#191618" stroke="#191618"/>
</svg>
